<svg width="140" height="50" viewBox="0 0 140 50" fill="none" xmlns="http://www.w3.org/2000/svg">
<g clip-path="url(#clip0_1078_5185)">
<path d="M79.4708 6.91544L69.1169 31.2825C66.9056 36.8251 63.7514 38.4897 59.603 38.4897C57.2545 38.4897 54.7004 37.7175 53.209 36.3961L55.6432 31.66C56.6717 32.5523 58.0774 33.1186 59.3973 33.1186C61.2315 33.1186 62.26 32.3121 63.1514 30.2529L63.2371 30.047L53.2947 6.91544H60.1687L66.6141 22.4966L73.0939 6.91544H79.4708V6.91544Z" fill="#100F3C"/>
<path d="M102.201 20.283H84.853C85.4872 23.1487 87.9214 24.899 91.4184 24.899C93.8526 24.899 95.6011 24.1783 97.1782 22.6854L100.709 26.5292C98.5838 28.9659 95.3783 30.2358 91.247 30.2358C83.3102 30.2358 78.1504 25.2422 78.1504 18.4126C78.1504 11.5315 83.3959 6.58943 90.3899 6.58943C97.1268 6.58943 102.338 11.1196 102.338 18.4984C102.338 18.996 102.252 19.7168 102.201 20.283ZM84.7673 16.3877H96.064C95.6011 13.4877 93.4241 11.6001 90.4413 11.6001C87.4072 11.6173 85.2301 13.4534 84.7673 16.3877Z" fill="#100F3C"/>
<path d="M130.058 18.3955C130.058 25.6026 125.069 30.2186 118.624 30.2186C115.761 30.2186 113.413 29.3263 111.716 27.4387V38.1465H105.064V6.91548H111.424V9.5581C113.087 7.5504 115.555 6.57228 118.624 6.57228C125.069 6.57228 130.058 11.1883 130.058 18.3955ZM123.321 18.3955C123.321 14.4315 120.801 12.0291 117.475 12.0291C114.15 12.0291 111.63 14.4144 111.63 18.3955C111.63 22.3594 114.15 24.7618 117.475 24.7618C120.801 24.7618 123.321 22.3766 123.321 18.3955Z" fill="#100F3C"/>
<path d="M131.806 26.3404C131.806 24.1611 133.52 22.5481 135.903 22.5481C138.285 22.5481 140 24.1783 140 26.3404C140 28.4683 138.285 30.2186 135.903 30.2186C133.52 30.2186 131.806 28.4683 131.806 26.3404ZM131.926 0H139.862L138.543 19.5108H133.263L131.926 0Z" fill="#100F3C"/>
<path d="M31.353 0.789352C31.353 0.978111 31.3702 5.78288 31.3702 5.97164C31.3016 11.5658 26.5532 16.1646 20.8963 16.0788C15.2737 16.0102 10.5939 11.2569 10.6453 5.67992C10.6453 5.59412 10.6453 5.50832 10.6624 5.42253H0.0171422C0.0171422 5.61128 0 5.80004 0 5.9888C0.0514265 17.1942 8.70822 26.2375 20.1249 27.0097C30.4788 27.7132 40.7641 19.5108 41.8097 8.83735C41.9126 7.70479 41.9983 1.93907 42.0669 0.789352H31.353V0.789352Z" fill="#0063FF"/>
<path d="M41.141 24.1611C43.6095 30.2186 40.901 36.2417 34.7641 38.6956C30.3586 40.463 25.8502 41.9903 21.3933 43.6205C16.1649 45.5252 10.9537 47.4471 5.72533 49.3519C5.07393 49.5921 4.38824 49.7122 3.73684 49.8838C1.62835 44.4613 3.73684 38.2666 8.99948 36.1559C19.559 31.9517 30.29 28.1937 41.141 24.1611Z" fill="#0063FF"/>
</g>
<defs>
<clipPath id="clip0_1078_5185">
<rect width="140" height="49.901" fill="white"/>
</clipPath>
</defs>
</svg>
